<svg width="57" height="57" viewBox="0 0 57 57" fill="none" xmlns="http://www.w3.org/2000/svg">
<rect opacity="0.2" width="57" height="57" rx="28.5" fill="#5BC49B"/>
<path d="M26.4444 32.1111V25.8889C26.4444 25.4763 26.6083 25.0807 26.9001 24.7889C27.1918 24.4972 27.5874 24.3333 28 24.3333H35V23.5556C35 22.7 34.3 22 33.4444 22H22.5556C22.143 22 21.7473 22.1639 21.4556 22.4556C21.1639 22.7473 21 23.143 21 23.5556V34.4444C21 34.857 21.1639 35.2527 21.4556 35.5444C21.7473 35.8361 22.143 36 22.5556 36H33.4444C34.3 36 35 35.3 35 34.4444V33.6667H28C27.5874 33.6667 27.1918 33.5028 26.9001 33.2111C26.6083 32.9193 26.4444 32.5237 26.4444 32.1111ZM28.7778 25.8889C28.35 25.8889 28 26.2389 28 26.6667V31.3333C28 31.7611 28.35 32.1111 28.7778 32.1111H35.7778V25.8889H28.7778ZM31.1111 30.1667C30.4656 30.1667 29.9444 29.6456 29.9444 29C29.9444 28.3544 30.4656 27.8333 31.1111 27.8333C31.7567 27.8333 32.2778 28.3544 32.2778 29C32.2778 29.6456 31.7567 30.1667 31.1111 30.1667Z" fill="#5BC49B"/>
</svg>
