<svg width="40" height="49" viewBox="0 0 40 49" fill="none" xmlns="http://www.w3.org/2000/svg">
<path d="M39.0566 40.4481C39.5775 40.4481 40 40.0258 40 39.5047V2.83019C40 1.26962 38.7304 0 37.1698 0H2.83019C1.26962 0 0 1.26962 0 2.83019V45.4717C0 47.0323 1.26962 48.3019 2.83019 48.3019H37.1698C38.7304 48.3019 40 47.0323 40 45.4717V38.5215C40 38.0005 39.5775 37.5781 39.0566 37.5781C38.5357 37.5781 38.1132 38.0005 38.1132 38.5215V45.4717C38.1132 45.9919 37.69 46.4151 37.1698 46.4151H2.83019C2.31 46.4151 1.88679 45.9919 1.88679 45.4717V2.83019C1.88679 2.31 2.31 1.88679 2.83019 1.88679H37.1698C37.69 1.88679 38.1132 2.31 38.1132 2.83019V39.5047C38.1132 40.0258 38.5357 40.4481 39.0566 40.4481Z" fill="#9C9C9F"/>
<path d="M20 5.09434C15.2142 5.09434 11.3208 8.98783 11.3208 13.7736C11.3208 16.2563 12.3689 18.4986 14.0455 20.082C14.0769 20.1156 14.1103 20.1474 14.1468 20.1763C15.6912 21.5894 17.7466 22.4527 19.9999 22.4527C22.2532 22.4527 24.3086 21.5893 25.853 20.1763C25.8895 20.1474 25.9229 20.1155 25.9543 20.082C27.6311 18.4986 28.6792 16.2563 28.6792 13.7736C28.6792 8.98783 24.7858 5.09434 20 5.09434ZM20 20.566C18.4595 20.566 17.0378 20.0498 15.8971 19.1823C16.7262 17.712 18.2735 16.7925 20 16.7925C21.7265 16.7925 23.2738 17.712 24.1029 19.1823C22.9621 20.0498 21.5405 20.566 20 20.566ZM18.4906 13.3962V12.783C18.4906 11.9508 19.1677 11.2736 20 11.2736C20.8323 11.2736 21.5094 11.9508 21.5094 12.783V13.3962C21.5094 14.2285 20.8323 14.9057 20 14.9057C19.1677 14.9057 18.4906 14.2285 18.4906 13.3962ZM25.466 17.8003C24.7703 16.7684 23.806 15.9658 22.6865 15.4704C23.1308 14.8961 23.3962 14.1768 23.3962 13.3962V12.783C23.3962 10.9103 21.8727 9.38679 20 9.38679C18.1273 9.38679 16.6038 10.9103 16.6038 12.783V13.3962C16.6038 14.1768 16.8692 14.8961 17.3135 15.4704C16.194 15.9658 15.2297 16.7684 14.534 17.8003C13.701 16.6726 13.2075 15.2799 13.2075 13.7736C13.2075 10.0282 16.2546 6.98113 20 6.98113C23.7454 6.98113 26.7925 10.0282 26.7925 13.7736C26.7925 15.2799 26.299 16.6726 25.466 17.8003Z" fill="#9C9C9F"/>
<path d="M25.0943 41.3208H20C19.4791 41.3208 19.0566 41.7431 19.0566 42.2641C19.0566 42.7852 19.4791 43.2075 20 43.2075H25.0943C25.6153 43.2075 26.0377 42.7852 26.0377 42.2641C26.0377 41.7431 25.6153 41.3208 25.0943 41.3208Z" fill="#9C9C9F"/>
<path d="M25.0943 36.0377H11.6981C11.1772 36.0377 10.7547 36.4601 10.7547 36.9811C10.7547 37.5022 11.1772 37.9245 11.6981 37.9245H25.0943C25.6153 37.9245 26.0377 37.5022 26.0377 36.9811C26.0377 36.4601 25.6153 36.0377 25.0943 36.0377Z" fill="#9C9C9F"/>
<path d="M25.0943 30.7547H11.6981C11.1772 30.7547 10.7547 31.1771 10.7547 31.6981C10.7547 32.2192 11.1772 32.6415 11.6981 32.6415H25.0943C25.6153 32.6415 26.0377 32.2192 26.0377 31.6981C26.0377 31.1771 25.6153 30.7547 25.0943 30.7547Z" fill="#9C9C9F"/>
<path d="M8.33575 25.7481C8.16038 25.5726 7.91698 25.4717 7.66792 25.4717C7.41972 25.4717 7.17632 25.5726 7.00094 25.7481C6.82547 25.9236 6.72453 26.167 6.72453 26.4151C6.72453 26.6632 6.82538 26.9066 7.00094 27.0821C7.17736 27.2575 7.41972 27.3585 7.66792 27.3585C7.91698 27.3585 8.15943 27.2575 8.33575 27.0821C8.51123 26.9066 8.61226 26.6632 8.61226 26.4151C8.61226 26.167 8.51132 25.9236 8.33575 25.7481Z" fill="#9C9C9F"/>
<path d="M8.33575 31.0311C8.15943 30.8557 7.91698 30.7547 7.66792 30.7547C7.41972 30.7547 7.17736 30.8557 7.00094 31.0311C6.82547 31.2066 6.72453 31.45 6.72453 31.6981C6.72453 31.9462 6.82538 32.1896 7.00094 32.3651C7.17736 32.5406 7.41972 32.6415 7.66792 32.6415C7.91698 32.6415 8.15943 32.5406 8.33575 32.3651C8.51123 32.1896 8.61226 31.9462 8.61226 31.6981C8.61226 31.45 8.51132 31.2066 8.33575 31.0311Z" fill="#9C9C9F"/>
<path d="M8.33575 36.3141C8.15943 36.1387 7.91698 36.0377 7.66792 36.0377C7.41972 36.0377 7.17736 36.1387 7.00094 36.3141C6.82547 36.4896 6.72453 36.733 6.72453 36.9811C6.72453 37.2292 6.82538 37.4726 7.00094 37.6481C7.17632 37.8236 7.41972 37.9245 7.66792 37.9245C7.91698 37.9245 8.16038 37.8236 8.33575 37.6481C8.51123 37.4726 8.61226 37.2292 8.61226 36.9811C8.61226 36.733 8.51132 36.4896 8.33575 36.3141Z" fill="#9C9C9F"/>
<path d="M25.0943 25.4717H11.6981C11.1772 25.4717 10.7547 25.8941 10.7547 26.4151C10.7547 26.9361 11.1772 27.3585 11.6981 27.3585H25.0943C25.6153 27.3585 26.0377 26.9361 26.0377 26.4151C26.0377 25.8941 25.6153 25.4717 25.0943 25.4717Z" fill="#9C9C9F"/>
</svg>
