<svg width="44" height="44" viewBox="0 0 44 44" fill="none" xmlns="http://www.w3.org/2000/svg">
<g clip-path="url(#clip0)">
<path d="M1.27881 7.75811C1.98515 7.75811 2.55762 7.18564 2.55762 6.4793V2.55762H6.4793C7.18564 2.55762 7.75811 1.98515 7.75811 1.27881C7.75811 0.572467 7.18564 0 6.4793 0H1.27881C0.572467 0 0 0.572467 0 1.27881V6.4793C0 7.18564 0.572467 7.75811 1.27881 7.75811Z" fill="#091013"/>
<path d="M42.3712 0H37.1707C36.4644 0 35.8919 0.572467 35.8919 1.27881C35.8919 1.98515 36.4644 2.55762 37.1707 2.55762H41.0924V6.4793C41.0924 7.18564 41.6649 7.75811 42.3712 7.75811C43.0775 7.75811 43.65 7.18564 43.65 6.4793V1.27881C43.65 0.572467 43.0775 0 42.3712 0Z" fill="#091013"/>
<path d="M1.27881 43.65H6.4793C7.18564 43.65 7.75811 43.0775 7.75811 42.3711C7.75811 41.6648 7.18564 41.0923 6.4793 41.0923H2.55762V37.1707C2.55762 36.4643 1.98515 35.8918 1.27881 35.8918C0.572467 35.8918 0 36.4643 0 37.1707V42.3711C0 43.0775 0.572467 43.65 1.27881 43.65Z" fill="#091013"/>
<path d="M42.3712 35.8918C41.6649 35.8918 41.0924 36.4643 41.0924 37.1707V41.0923H37.1707C36.4644 41.0923 35.8919 41.6648 35.8919 42.3711C35.8919 43.0775 36.4644 43.65 37.1707 43.65H42.3712C43.0775 43.65 43.65 43.0775 43.65 42.3711V37.1707C43.65 36.4643 43.0775 35.8918 42.3712 35.8918Z" fill="#091013"/>
<path d="M9.94108 15.0563C10.3827 14.6147 10.9701 14.3716 11.5945 14.3716C12.219 14.3716 12.8064 14.6147 13.248 15.0563C13.7472 15.5558 14.5568 15.5558 15.0563 15.0563C15.5559 14.5567 15.5559 13.7472 15.0563 13.248C14.1318 12.3232 12.9023 11.814 11.5945 11.814C10.2868 11.814 9.05757 12.3232 8.13277 13.248C7.63323 13.7472 7.63323 14.5567 8.13277 15.0563C8.63197 15.5558 9.44188 15.5558 9.94108 15.0563Z" fill="#091013"/>
<path d="M20.1716 15.0563C20.6131 14.6147 21.2006 14.3716 21.825 14.3716C22.4494 14.3716 23.0369 14.6147 23.4785 15.0563C23.9777 15.5558 24.7873 15.5558 25.2868 15.0563C25.7863 14.5567 25.7863 13.7472 25.2868 13.248C24.3623 12.3232 23.1328 11.814 21.825 11.814C20.5172 11.814 19.288 12.3232 18.3632 13.248C17.8637 13.7472 17.8637 14.5567 18.3632 15.0563C18.8624 15.5558 19.6724 15.5558 20.1716 15.0563Z" fill="#091013"/>
<path d="M29.4979 23.1038C27.3825 23.1038 25.6614 24.8248 25.6614 26.9402C25.6614 29.0555 27.3825 30.7766 29.4979 30.7766C31.6132 30.7766 33.3343 29.0555 33.3343 26.9402C33.3343 24.8248 31.6132 23.1038 29.4979 23.1038ZM29.4979 28.219C28.7929 28.219 28.2191 27.6452 28.2191 26.9402C28.2191 26.2352 28.7929 25.6614 29.4979 25.6614C30.2029 25.6614 30.7767 26.2352 30.7767 26.9402C30.7767 27.6452 30.2029 28.219 29.4979 28.219Z" fill="#091013"/>
<path d="M34.6131 15.4309C33.9067 15.4309 33.3343 16.0034 33.3343 16.7097V17.9885H30.7181C30.0697 10.8292 24.0353 5.20044 16.7098 5.20044C8.90637 5.20044 2.55762 11.5109 2.55762 19.2673C2.55762 27.0238 8.90637 33.3342 16.7098 33.3342C17.137 33.3342 17.564 33.3139 17.9886 33.2756V34.613C17.9886 35.3194 18.561 35.8918 19.2674 35.8918H39.8136C40.5199 35.8918 41.0924 35.3194 41.0924 34.613V19.2673C41.0924 18.561 40.5199 17.9885 39.8136 17.9885H35.8919V16.7097C35.8919 16.0034 35.3194 15.4309 34.6131 15.4309ZM16.7098 30.7766C10.3164 30.7766 5.11523 25.6134 5.11523 19.2673C5.11523 12.9212 10.3164 7.75806 16.7098 7.75806C22.6236 7.75806 27.5094 12.2419 28.1474 17.9885C27.5773 17.9885 10.0879 17.9885 9.03691 17.9885C8.33057 17.9885 7.75811 18.561 7.75811 19.2673C7.75811 24.2034 11.7737 28.219 16.7098 28.219C17.14 28.219 17.567 28.1867 17.9886 28.1261V30.7053C17.565 30.7523 17.1377 30.7766 16.7098 30.7766ZM17.9886 25.5318C17.57 25.6171 17.1424 25.6614 16.7098 25.6614C13.622 25.6614 11.0384 23.4611 10.4443 20.5461H17.9886V25.5318ZM38.5348 33.3342H20.5462V20.5461H38.5348V33.3342Z" fill="#091013"/>
</g>
<defs>
<clipPath id="clip0">
<rect width="43.65" height="43.65" fill="white"/>
</clipPath>
</defs>
</svg>
