<svg width="50" height="50" viewBox="0 0 50 50" fill="none" xmlns="http://www.w3.org/2000/svg">
<g clip-path="url(#clip0)">
<path d="M46.388 6.65259H3.50677C1.57335 6.65259 0 8.22594 0 10.1594V10.8105V19.1263V39.7353C0 41.6687 1.57335 43.2421 3.50677 43.2421H46.388C48.3214 43.2421 49.8947 41.6687 49.8947 39.7353V19.1263V10.8105V10.1594C49.8947 8.22594 48.3214 6.65259 46.388 6.65259ZM2.49474 13.3052C2.95377 13.3052 3.32632 12.9327 3.32632 12.4736H6.65263C6.65263 12.9327 7.02518 13.3052 7.48421 13.3052C7.94324 13.3052 8.31579 12.9327 8.31579 12.4736H11.6421C11.6421 12.9327 12.0147 13.3052 12.4737 13.3052C12.9327 13.3052 13.3053 12.9327 13.3053 12.4736H16.6316C16.6316 12.9327 17.0041 13.3052 17.4632 13.3052C17.9222 13.3052 18.2947 12.9327 18.2947 12.4736H21.6211C21.6211 12.9327 21.9936 13.3052 22.4526 13.3052C22.9117 13.3052 23.2842 12.9327 23.2842 12.4736H26.6105C26.6105 12.9327 26.9831 13.3052 27.4421 13.3052C27.9011 13.3052 28.2737 12.9327 28.2737 12.4736H31.6C31.6 12.9327 31.9725 13.3052 32.4316 13.3052C32.8906 13.3052 33.2632 12.9327 33.2632 12.4736H36.5895C36.5895 12.9327 36.962 13.3052 37.4211 13.3052C37.8801 13.3052 38.2526 12.9327 38.2526 12.4736H41.5789C41.5789 12.9327 41.9515 13.3052 42.4105 13.3052C42.8696 13.3052 43.2421 12.9327 43.2421 12.4736H46.5684C46.5684 12.9327 46.941 13.3052 47.4 13.3052C47.859 13.3052 48.2316 12.9327 48.2316 12.4736V17.4631C48.2316 17.0041 47.859 16.6315 47.4 16.6315C46.941 16.6315 46.5684 17.0041 46.5684 17.4631H43.2421C43.2421 17.0041 42.8696 16.6315 42.4105 16.6315C41.9515 16.6315 41.5789 17.0041 41.5789 17.4631H38.2526C38.2526 17.0041 37.8801 16.6315 37.4211 16.6315C36.962 16.6315 36.5895 17.0041 36.5895 17.4631H33.2632C33.2632 17.0041 32.8906 16.6315 32.4316 16.6315C31.9725 16.6315 31.6 17.0041 31.6 17.4631H28.2737C28.2737 17.0041 27.9011 16.6315 27.4421 16.6315C26.9831 16.6315 26.6105 17.0041 26.6105 17.4631H23.2842C23.2842 17.0041 22.9117 16.6315 22.4526 16.6315C21.9936 16.6315 21.6211 17.0041 21.6211 17.4631H18.2947C18.2947 17.0041 17.9222 16.6315 17.4632 16.6315C17.0041 16.6315 16.6316 17.0041 16.6316 17.4631H13.3053C13.3053 17.0041 12.9327 16.6315 12.4737 16.6315C12.0147 16.6315 11.6421 17.0041 11.6421 17.4631H8.31579C8.31579 17.0041 7.94324 16.6315 7.48421 16.6315C7.02518 16.6315 6.65263 17.0041 6.65263 17.4631H3.32632C3.32632 17.0041 2.95377 16.6315 2.49474 16.6315C2.03571 16.6315 1.66316 17.0041 1.66316 17.4631V12.4736C1.66316 12.9327 2.03571 13.3052 2.49474 13.3052ZM48.2316 39.7353C48.2316 40.7523 47.405 41.5789 46.388 41.5789H3.50677C2.48975 41.5789 1.66316 40.7523 1.66316 39.7353V19.1263H48.2316V39.7353ZM1.66316 10.8105V10.1594C1.66316 9.14234 2.48975 8.31575 3.50677 8.31575H46.388C47.405 8.31575 48.2316 9.14234 48.2316 10.1594V10.8105H1.66316Z" fill="#39393E"/>
<path d="M42.1186 39.0844H45.7368V20.7897H27.4421V39.0844H31.0603H42.1186ZM32.4316 37.4213V37.4171C32.4316 37.0554 32.6286 36.7236 32.9147 36.5672L35.0585 35.5111C35.4901 35.2966 35.7579 34.865 35.7579 34.3843V33.2018L35.2556 32.9848C34.498 32.6588 34.0032 32.0276 33.743 31.0547L33.624 30.6115L33.1866 30.4751C33.0902 30.4451 32.987 30.3512 32.987 30.2148V29.6601C32.987 29.5429 33.066 29.4589 33.1401 29.4198L33.5309 29.2119L33.5775 28.7712C33.629 28.2764 33.7371 27.8232 33.9026 27.4232C33.9741 27.2477 34.0348 27.1172 34.0847 27.0107C34.2136 26.7338 34.2918 26.5292 34.3201 26.2997C34.928 26.5533 35.6165 26.6556 36.3491 26.5966C36.4281 26.5899 36.5088 26.5866 36.5911 26.5866C39.0185 26.5866 39.4759 27.6959 39.6031 28.7803L39.6546 29.2144L40.0413 29.419C40.1153 29.4581 40.1952 29.5412 40.1952 29.6601V30.2148C40.1952 30.3512 40.0921 30.4451 39.9956 30.4751L39.5582 30.6115L39.4393 31.0547C39.179 32.0276 38.6842 32.6596 37.9266 32.9848L37.421 33.2018V34.3893C37.421 34.8633 37.683 35.2932 38.1062 35.5095L40.2018 36.5789C40.5261 36.741 40.7324 37.062 40.7465 37.4221H32.4316V37.4213ZM29.1052 22.4528H44.0737V37.4213H42.408C42.393 36.4283 41.8384 35.5386 40.9494 35.092L39.1881 34.1931C39.9981 33.675 40.5819 32.895 40.9295 31.8638C41.4991 31.5179 41.8567 30.9008 41.8567 30.214V29.6593C41.8567 29.0963 41.6114 28.5716 41.1972 28.2082C40.9004 26.6299 39.8293 24.9226 36.5903 24.9226C36.463 24.9226 36.3375 24.9276 36.2161 24.9376C35.7795 24.9717 35.1467 24.9376 34.6053 24.5734C34.3517 24.4037 34.2244 24.2732 34.1596 24.19C33.8943 23.8549 33.4519 23.7401 33.0586 23.9014C32.6652 24.0636 32.4349 24.4578 32.4831 24.8794C32.5072 25.0931 32.5438 25.3426 32.5987 25.6162C32.6686 25.9663 32.6735 26.066 32.6702 26.0927C32.6627 26.1218 32.6153 26.2249 32.5771 26.308C32.5189 26.4328 32.4474 26.5866 32.3634 26.792C32.1821 27.2311 32.0515 27.7101 31.9717 28.2223C31.5642 28.5857 31.3247 29.1055 31.3247 29.6601V30.2148C31.3247 30.9017 31.6831 31.5187 32.2519 31.8646C32.5987 32.8916 33.1791 33.67 33.9841 34.1872L32.1505 35.0912C31.2973 35.5569 30.7684 36.4475 30.7684 37.4171V37.4213H29.1052V22.4528Z" fill="#39393E"/>
<path d="M4.98948 24.1159H12.4737C12.9336 24.1159 13.3053 23.7442 13.3053 23.2843C13.3053 22.8245 12.9336 22.4528 12.4737 22.4528H4.98948C4.52961 22.4528 4.1579 22.8245 4.1579 23.2843C4.1579 23.7442 4.52961 24.1159 4.98948 24.1159Z" fill="#39393E"/>
<path d="M15.8 24.1159H23.2842C23.7441 24.1159 24.1158 23.7442 24.1158 23.2843C24.1158 22.8245 23.7441 22.4528 23.2842 22.4528H15.8C15.3402 22.4528 14.9684 22.8245 14.9684 23.2843C14.9684 23.7442 15.3402 24.1159 15.8 24.1159Z" fill="#39393E"/>
<path d="M4.98948 28.2739H5.82106C6.28092 28.2739 6.65263 27.9022 6.65263 27.4423C6.65263 26.9824 6.28092 26.6107 5.82106 26.6107H4.98948C4.52961 26.6107 4.1579 26.9824 4.1579 27.4423C4.1579 27.9022 4.52961 28.2739 4.98948 28.2739Z" fill="#39393E"/>
<path d="M10.8105 28.2739C11.2704 28.2739 11.6421 27.9022 11.6421 27.4423C11.6421 26.9824 11.2704 26.6107 10.8105 26.6107H9.14737C8.68751 26.6107 8.3158 26.9824 8.3158 27.4423C8.3158 27.9022 8.68751 28.2739 9.14737 28.2739H10.8105Z" fill="#39393E"/>
<path d="M14.1368 28.2739H14.9684C15.4283 28.2739 15.8 27.9022 15.8 27.4423C15.8 26.9824 15.4283 26.6107 14.9684 26.6107H14.1368C13.677 26.6107 13.3052 26.9824 13.3052 27.4423C13.3052 27.9022 13.677 28.2739 14.1368 28.2739Z" fill="#39393E"/>
<path d="M19.9579 28.2739C20.4177 28.2739 20.7895 27.9022 20.7895 27.4423C20.7895 26.9824 20.4177 26.6107 19.9579 26.6107H18.2947C17.8349 26.6107 17.4631 26.9824 17.4631 27.4423C17.4631 27.9022 17.8349 28.2739 18.2947 28.2739H19.9579Z" fill="#39393E"/>
<path d="M22.6938 26.852C22.5433 27.0091 22.4526 27.217 22.4526 27.4424C22.4526 27.6669 22.5433 27.8748 22.6938 28.0328C22.851 28.1825 23.068 28.274 23.2842 28.274C23.5004 28.274 23.7166 28.1825 23.8746 28.0328C24.0243 27.8748 24.1158 27.6586 24.1158 27.4424C24.1158 27.2262 24.0243 27.0091 23.8746 26.852C23.567 26.5443 23.0015 26.5443 22.6938 26.852Z" fill="#39393E"/>
<path d="M9.68865 31.101C7.86749 32.049 7.25378 33.8627 7.03092 35.7429C6.68665 35.4544 6.34237 35.1666 5.99893 34.8781C5.18399 34.1954 4.00148 35.3654 4.82308 36.0539C5.60061 36.7051 6.37896 37.357 7.15649 38.009C7.70367 38.468 8.55105 38.1778 8.57599 37.421C8.6367 35.6198 8.72152 33.4777 10.5285 32.5372C11.4782 32.0432 10.6383 30.6071 9.68865 31.101Z" fill="#39393E"/>
<path d="M20.7114 33.5725C19.4989 33.496 17.7243 35.3645 16.7896 33.6997C16.5734 33.3139 16.0304 33.1692 15.652 33.4012C14.4745 34.1238 12.9353 35.1633 11.697 33.817C10.9711 33.0278 9.79689 34.2061 10.5212 34.9928C12.0762 36.6834 14.077 36.1687 15.8425 35.2115C16.24 35.6564 16.7331 35.9816 17.3701 36.1105C18.0295 36.2435 20.7172 35.1616 20.8627 35.3612C21.4881 36.2169 22.9317 35.3878 22.2988 34.5213C21.8689 33.9342 21.4723 33.6199 20.7114 33.5725Z" fill="#39393E"/>
<path d="M34.9263 15.8001C35.3856 15.8001 35.7579 15.4278 35.7579 14.9685C35.7579 14.5093 35.3856 14.137 34.9263 14.137C34.467 14.137 34.0947 14.5093 34.0947 14.9685C34.0947 15.4278 34.467 15.8001 34.9263 15.8001Z" fill="#39393E"/>
<path d="M39.9158 15.8001C40.3751 15.8001 40.7474 15.4278 40.7474 14.9685C40.7474 14.5093 40.3751 14.137 39.9158 14.137C39.4565 14.137 39.0842 14.5093 39.0842 14.9685C39.0842 15.4278 39.4565 15.8001 39.9158 15.8001Z" fill="#39393E"/>
<path d="M19.9579 15.8001C20.4172 15.8001 20.7895 15.4278 20.7895 14.9685C20.7895 14.5093 20.4172 14.137 19.9579 14.137C19.4987 14.137 19.1263 14.5093 19.1263 14.9685C19.1263 15.4278 19.4987 15.8001 19.9579 15.8001Z" fill="#39393E"/>
<path d="M24.9474 15.8001C25.4066 15.8001 25.7789 15.4278 25.7789 14.9685C25.7789 14.5093 25.4066 14.137 24.9474 14.137C24.4881 14.137 24.1158 14.5093 24.1158 14.9685C24.1158 15.4278 24.4881 15.8001 24.9474 15.8001Z" fill="#39393E"/>
<path d="M29.9369 15.8001C30.3961 15.8001 30.7684 15.4278 30.7684 14.9685C30.7684 14.5093 30.3961 14.137 29.9369 14.137C29.4776 14.137 29.1053 14.5093 29.1053 14.9685C29.1053 15.4278 29.4776 15.8001 29.9369 15.8001Z" fill="#39393E"/>
<path d="M44.9052 15.8001C45.3645 15.8001 45.7368 15.4278 45.7368 14.9685C45.7368 14.5093 45.3645 14.137 44.9052 14.137C44.446 14.137 44.0737 14.5093 44.0737 14.9685C44.0737 15.4278 44.446 15.8001 44.9052 15.8001Z" fill="#39393E"/>
<path d="M14.9684 15.8001C15.4277 15.8001 15.8 15.4278 15.8 14.9685C15.8 14.5093 15.4277 14.137 14.9684 14.137C14.5092 14.137 14.1368 14.5093 14.1368 14.9685C14.1368 15.4278 14.5092 15.8001 14.9684 15.8001Z" fill="#39393E"/>
<path d="M4.98948 15.8001C5.44875 15.8001 5.82106 15.4278 5.82106 14.9685C5.82106 14.5093 5.44875 14.137 4.98948 14.137C4.53021 14.137 4.1579 14.5093 4.1579 14.9685C4.1579 15.4278 4.53021 15.8001 4.98948 15.8001Z" fill="#39393E"/>
<path d="M9.97892 15.8001C10.4382 15.8001 10.8105 15.4278 10.8105 14.9685C10.8105 14.5093 10.4382 14.137 9.97892 14.137C9.51965 14.137 9.14734 14.5093 9.14734 14.9685C9.14734 15.4278 9.51965 15.8001 9.97892 15.8001Z" fill="#39393E"/>
</g>
<defs>
<clipPath id="clip0">
<rect width="49.8947" height="49.8947" fill="white"/>
</clipPath>
</defs>
</svg>
