<svg width="35" height="35" viewBox="0 0 35 35" fill="none" xmlns="http://www.w3.org/2000/svg">
<path d="M1.87272 32.8613V33.0893H2.10068H28.4573H28.6853V32.8613V30.6177C28.6853 30.1875 29.0343 29.8385 29.4652 29.8385C29.896 29.8385 30.2451 30.1875 30.2451 30.6177V33.8685C30.2451 34.2987 29.8961 34.6478 29.4652 34.6478H1.09282C0.661959 34.6478 0.312919 34.2987 0.312919 33.8686V17.5004C0.312919 17.0703 0.661958 16.7212 1.09282 16.7212C1.52368 16.7212 1.87272 17.0703 1.87272 17.5004V32.8613Z" fill="#39393E" stroke="#1D343C" stroke-width="0.455917"/>
<path d="M1.09375 12.0628V11.7364L11.6492 1.0072V12.0628H1.09375Z" fill="#5BC49B"/>
<path d="M33.1015 14.946H13.043V26.0974H33.1015V14.946Z" fill="#5BC49B"/>
<path d="M30.2452 14.1667V13.9388V1.00716C30.2452 0.577031 29.8962 0.227958 29.4653 0.227958H11.6539L11.6518 0.228097C11.6486 0.228287 11.6439 0.228528 11.6383 0.228614L11.6374 0.228627C11.6188 0.228832 11.6001 0.229762 11.5812 0.231401L11.5805 0.231465L11.5623 0.233146C11.5621 0.233175 11.5618 0.233203 11.5616 0.233231C11.5388 0.235806 11.5178 0.23892 11.498 0.242831L11.4971 0.243022C11.494 0.243612 11.4911 0.244107 11.4888 0.24448C11.4685 0.248819 11.4474 0.25431 11.4252 0.260888C11.4225 0.261683 11.4219 0.261899 11.4205 0.262365C11.4189 0.262925 11.4162 0.263846 11.4077 0.266567C11.4074 0.266653 11.4071 0.26674 11.4069 0.266829L30.2452 14.1667ZM30.2452 14.1667H30.4732M30.2452 14.1667H30.4732M30.4732 14.1667H33.1008C33.5316 14.1667 33.8807 14.5159 33.8806 14.946V26.0968C33.8806 26.5269 33.5316 26.876 33.1007 26.876H13.0423C12.6114 26.876 12.2624 26.5269 12.2624 26.0968V14.9459C12.2624 14.5158 12.6114 14.1667 13.0423 14.1667H28.4573H28.6853V13.9388V2.01432V1.78636H28.4573H12.656H12.4281M30.4732 14.1667L12.4281 1.78636M0.272886 11.1526L0.458416 11.2851L0.458125 11.2855L0.450031 11.2966L0.446744 11.301L0.444099 11.3045C0.440932 11.3088 0.440095 11.31 0.440066 11.3101L0.43994 11.3103C0.432144 11.3221 0.424638 11.3353 0.412241 11.3575L0.406236 11.3679L0.402323 11.3745C0.402003 11.375 0.401755 11.3754 0.40157 11.3757C0.394879 11.3885 0.388404 11.403 0.378619 11.4255L0.378361 11.4261L0.373453 11.4368L0.370361 11.4434C0.370036 11.4441 0.369793 11.4446 0.369618 11.445C0.3645 11.4579 0.359637 11.4723 0.3526 11.4936L0.352552 11.4937L0.348783 11.5047L0.347347 11.5088L0.346248 11.5119C0.345522 11.5139 0.345184 11.5149 0.345077 11.5153C0.342035 11.5256 0.339602 11.5363 0.335137 11.5558L0.333851 11.5615L0.33364 11.5624L0.330771 11.5743L0.328688 11.5827L0.327169 11.5891C0.325773 11.5963 0.324989 11.6023 0.323432 11.6143C0.322795 11.6192 0.322028 11.6251 0.321037 11.6324L0.536679 11.1902L0.374229 11.0304L0.53669 11.1902L11.0919 0.461043L10.9295 0.301077L11.092 0.460955C11.1073 0.44541 11.1244 0.429823 11.1439 0.413388L11.1439 0.413397L11.1456 0.411858C11.1472 0.41055 11.148 0.409916 11.1503 0.408079C11.1521 0.406634 11.1548 0.404445 11.1596 0.4006M0.272886 11.1526C0.275711 11.1487 0.278507 11.1447 0.281303 11.1408C0.289775 11.1288 0.298254 11.1168 0.307581 11.1052C0.328439 11.0793 0.350592 11.0543 0.374176 11.0303L10.9295 0.301071C10.951 0.279274 10.9735 0.258908 10.9966 0.239358C11.0014 0.235193 11.0064 0.23125 11.0113 0.227283C11.0131 0.225865 11.0149 0.224445 11.0167 0.223011M0.272886 11.1526C0.270011 11.1567 0.26704 11.1606 0.264066 11.1646C0.259143 11.1712 0.254215 11.1778 0.249711 11.1847M0.272886 11.1526L0.249711 11.1847M11.0167 0.223011L11.1596 0.4006M11.0167 0.223011L11.1599 0.400365C11.1598 0.400444 11.1597 0.400522 11.1596 0.4006M11.0167 0.223011C11.0345 0.208638 11.0527 0.194947 11.0714 0.181937M11.1596 0.4006C11.1733 0.389585 11.1869 0.379292 11.2007 0.369654M11.2007 0.369654C11.2003 0.36992 11.1999 0.370195 11.1995 0.37048L11.0714 0.181937M11.2007 0.369654C11.2011 0.369431 11.2014 0.369209 11.2017 0.368987L11.0714 0.181937M11.2007 0.369654L11.0918 0.167837C11.0877 0.170535 11.0837 0.173353 11.0797 0.176163C11.0769 0.178105 11.0742 0.180044 11.0714 0.181937M0.249711 11.1847C0.236726 11.2043 0.225319 11.2247 0.21394 11.245L0.213312 11.2462C0.211514 11.2494 0.209605 11.2526 0.207696 11.2558C0.205116 11.2601 0.202535 11.2644 0.200224 11.2688C0.188909 11.2903 0.17923 11.3124 0.169619 11.3344C0.16818 11.3377 0.166644 11.341 0.165108 11.3442C0.163006 11.3486 0.160905 11.3531 0.159054 11.3576C0.150466 11.3789 0.143308 11.4004 0.136151 11.422M0.249711 11.1847L0.111613 11.5107C0.112118 11.5085 0.112621 11.5063 0.113123 11.5041C0.117231 11.486 0.121325 11.468 0.126608 11.4502C0.128326 11.4444 0.130352 11.4386 0.132386 11.4329C0.133663 11.4293 0.134942 11.4257 0.136151 11.422M0.136151 11.422L0.136155 11.422L0.136151 11.422ZM12.4281 1.78636V2.01432M12.4281 1.78636V2.01432M12.4281 2.01432V12.0627C12.4281 12.4929 12.079 12.8419 11.6482 12.8419H1.09282C0.661959 12.8419 0.312919 12.4929 0.312919 12.0627V11.7368L12.4281 2.01432ZM11.4843 0.245178C11.4838 0.245261 11.4835 0.245307 11.4835 0.245307L11.4839 0.245241L11.484 0.245228C11.4841 0.245218 11.4842 0.245199 11.4843 0.245178ZM0.345185 11.5149C0.345157 11.515 0.345132 11.5151 0.345111 11.5151L0.345185 11.5149ZM3.01345 10.8958L2.63189 11.2837H3.17595H10.6404H10.8684V11.0557V3.46831V2.91154L10.4779 3.30844L6.28104 7.57452L6.28104 7.57453L3.01345 10.8958ZM32.0929 25.3176H32.3209V25.0896V15.9532V15.7252H32.0929H14.0502H13.8222V15.9532V25.0896V25.3176H14.0502H32.0929Z" fill="#39393E" stroke="#1D343C" stroke-width="0.455917"/>
<path d="M16.8713 23.0453V18.8372H18.6849C18.8904 18.8372 19.0801 18.8806 19.2539 18.9676C19.4278 19.0505 19.576 19.1612 19.6984 19.2995C19.8249 19.4338 19.9237 19.5899 19.9948 19.7677C20.0659 19.9416 20.1015 20.1174 20.1015 20.2952C20.1015 20.4809 20.0679 20.6627 20.0007 20.8405C19.9336 21.0143 19.8387 21.1704 19.7162 21.3087C19.5977 21.443 19.4515 21.5517 19.2776 21.6347C19.1077 21.7137 18.92 21.7532 18.7146 21.7532H18.0271V23.0453H16.8713ZM18.0271 20.7456H18.6375C18.7087 20.7456 18.7738 20.714 18.8331 20.6508C18.8963 20.5836 18.9279 20.4651 18.9279 20.2952C18.9279 20.1213 18.8924 20.0028 18.8213 19.9396C18.7501 19.8764 18.679 19.8448 18.6079 19.8448H18.0271V20.7456ZM21.7038 23.0453V18.8372H23.3219C23.6696 18.8372 23.9758 18.8925 24.2406 19.0031C24.5053 19.1138 24.7266 19.2639 24.9044 19.4536C25.0822 19.6432 25.2165 19.8665 25.3074 20.1233C25.3983 20.3762 25.4437 20.6469 25.4437 20.9353C25.4437 21.2554 25.3924 21.5458 25.2896 21.8066C25.1909 22.0634 25.0486 22.2847 24.8629 22.4704C24.6772 22.6521 24.4539 22.7944 24.1932 22.8971C23.9324 22.9959 23.642 23.0453 23.3219 23.0453H21.7038ZM24.2702 20.9353C24.2702 20.7733 24.2485 20.6251 24.205 20.4908C24.1615 20.3564 24.0983 20.2419 24.0153 20.147C23.9363 20.0522 23.8375 19.9791 23.719 19.9277C23.6005 19.8724 23.4681 19.8448 23.3219 19.8448H22.8596V22.0377H23.3219C23.472 22.0377 23.6064 22.0101 23.7249 21.9547C23.8435 21.8994 23.9423 21.8224 24.0213 21.7236C24.1043 21.6248 24.1655 21.5082 24.205 21.3739C24.2485 21.2396 24.2702 21.0934 24.2702 20.9353ZM27.0863 23.0453V18.8372H29.9727V19.8448H28.242V20.5441H29.6526V21.4806H28.242V23.0453H27.0863Z" fill="white"/>
</svg>
