<svg width="21" height="21" viewBox="0 0 21 21" fill="none" xmlns="http://www.w3.org/2000/svg">
<path fill-rule="evenodd" clip-rule="evenodd" d="M10.5 0C4.70101 0 0 4.70101 0 10.5C0 16.299 4.70101 21 10.5 21C16.299 21 21 16.299 21 10.5C21 4.70101 16.299 0 10.5 0ZM8.19132 4.93372C8.78866 4.90654 8.97953 4.89989 10.5004 4.89989H10.4987C12.02 4.89989 12.2102 4.90654 12.8075 4.93372C13.4037 4.96102 13.8109 5.05541 14.1679 5.19389C14.5365 5.33681 14.848 5.52815 15.1595 5.83965C15.471 6.15092 15.6624 6.46336 15.8059 6.83168C15.9436 7.18775 16.0381 7.59469 16.0661 8.19086C16.0929 8.7882 16.0999 8.97907 16.0999 10.5C16.0999 12.0208 16.0929 12.2112 16.0661 12.8086C16.0381 13.4045 15.9436 13.8116 15.8059 14.1678C15.6624 14.536 15.471 14.8484 15.1595 15.1597C14.8484 15.4712 14.5364 15.663 14.1682 15.806C13.8119 15.9445 13.4045 16.0389 12.8083 16.0662C12.211 16.0934 12.0207 16.1 10.4997 16.1C8.97895 16.1 8.7882 16.0934 8.19086 16.0662C7.5948 16.0389 7.18775 15.9445 6.83144 15.806C6.46336 15.663 6.15092 15.4712 5.83977 15.1597C5.52838 14.8484 5.33704 14.536 5.19389 14.1676C5.05552 13.8116 4.96114 13.4046 4.93372 12.8085C4.90666 12.2111 4.89989 12.0208 4.89989 10.5C4.89989 8.97907 4.90689 8.78808 4.93361 8.19074C4.96044 7.5948 5.05494 7.18775 5.19378 6.83156C5.33728 6.46336 5.52861 6.15092 5.84012 5.83965C6.15139 5.52826 6.46382 5.33693 6.83214 5.19389C7.18821 5.05541 7.59515 4.96102 8.19132 4.93372Z" fill="#39393E"/>
<path fill-rule="evenodd" clip-rule="evenodd" d="M9.99818 5.90911C10.0957 5.90896 10.2007 5.90901 10.3139 5.90906L10.5005 5.90911C11.9958 5.90911 12.173 5.91448 12.7634 5.94132C13.3094 5.96628 13.6058 6.05752 13.8032 6.13417C14.0645 6.23567 14.2508 6.357 14.4467 6.553C14.6427 6.74901 14.7641 6.93568 14.8658 7.19701C14.9424 7.39418 15.0338 7.69052 15.0586 8.23652C15.0855 8.82686 15.0913 9.0042 15.0913 10.4987C15.0913 11.9932 15.0855 12.1706 15.0586 12.7609C15.0337 13.3069 14.9424 13.6032 14.8658 13.8004C14.7643 14.0617 14.6427 14.2478 14.4467 14.4437C14.2507 14.6397 14.0646 14.7611 13.8032 14.8626C13.606 14.9396 13.3094 15.0306 12.7634 15.0555C12.1731 15.0824 11.9958 15.0882 10.5005 15.0882C9.00522 15.0882 8.828 15.0824 8.23766 15.0555C7.69165 15.0303 7.39532 14.9391 7.1978 14.8624C6.93646 14.7609 6.74979 14.6396 6.55379 14.4436C6.35779 14.2476 6.23645 14.0614 6.13472 13.7999C6.05807 13.6028 5.96672 13.3064 5.94187 12.7604C5.91503 12.1701 5.90967 11.9928 5.90967 10.4973C5.90967 9.00186 5.91503 8.82546 5.94187 8.23512C5.96684 7.68912 6.05807 7.39278 6.13472 7.19538C6.23622 6.93404 6.35779 6.74737 6.55379 6.55137C6.74979 6.35537 6.93646 6.23403 7.1978 6.1323C7.3952 6.0553 7.69165 5.9643 8.23766 5.93922C8.75426 5.91588 8.95447 5.90888 9.99818 5.90771V5.90911ZM13.4898 6.83901C13.1188 6.83901 12.8178 7.13966 12.8178 7.51078C12.8178 7.88179 13.1188 8.18279 13.4898 8.18279C13.8608 8.18279 14.1618 7.88179 14.1618 7.51078C14.1618 7.13978 13.8608 6.83878 13.4898 6.83878V6.83901ZM7.62475 10.5002C7.62475 8.91205 8.91235 7.62441 10.5005 7.62435C12.0887 7.62435 13.376 8.91201 13.376 10.5002C13.376 12.0884 12.0888 13.3755 10.5006 13.3755C8.91242 13.3755 7.62475 12.0884 7.62475 10.5002Z" fill="#39393E"/>
<path d="M10.5005 8.6333C11.5314 8.6333 12.3672 9.46899 12.3672 10.5C12.3672 11.5309 11.5314 12.3667 10.5005 12.3667C9.46948 12.3667 8.63379 11.5309 8.63379 10.5C8.63379 9.46899 9.46948 8.6333 10.5005 8.6333Z" fill="#39393E"/>
</svg>
