<svg id="Capa_1" enable-background="new 0 0 512 512" height="512" viewBox="0 0 512 512" width="512" xmlns="http://www.w3.org/2000/svg"><g><g><path d="m165.093 319.828c-.608.752-1.278 1.484-1.989 2.195l-6.905 6.916c-.649.649-1.319 1.268-2.01 1.845-13.409 11.44-33.568 10.822-46.245-1.845l-34.846-34.846-.113-.113c-12.533-12.656-13.141-32.672-1.804-46.039.598-.722 1.237-1.422 1.917-2.103l6.916-6.916c.68-.68 1.371-1.319 2.092-1.917 13.326-11.306 33.3-10.739 45.957 1.721.072.062.134.124.206.196l15.862 15.872 18.974 18.974c12.614 12.615 13.284 32.651 1.988 46.06z" fill="#99e6fc"/><path d="m163.104 273.768-18.974-18.974c13.326 13.326 13.326 34.929 0 48.255l-6.916 6.905c-13.326 13.326-34.929 13.326-48.245 0l18.974 18.985c12.677 12.667 32.837 13.285 46.245 1.845.691-.577 1.36-1.195 2.01-1.845l6.905-6.916c.711-.711 1.381-1.443 1.989-2.195 11.297-13.409 10.627-33.445-1.988-46.06z" fill="#62dbfb"/><path d="m438.907 340.935-9.936 9.935-24.911 24.901c-12.677 12.677-32.826 13.295-46.235 1.845-.69-.567-1.371-1.196-2.02-1.845l-6.916-6.905c-.701-.701-1.371-1.433-2-2.185-11.286-13.409-10.616-33.455 2-46.07l34.846-34.846c12.646-12.646 32.744-13.295 46.153-1.917.721.588 1.422 1.237 2.102 1.917l6.916 6.916c.68.68 1.319 1.371 1.917 2.092 11.369 13.408 10.719 33.516-1.916 46.162z" fill="#99e6fc"/><path d="m438.907 340.935-9.936 9.935c4.432-14.821.794-31.538-10.915-43.246l-.526-.526c-12.09-12.09-29.507-15.573-44.679-10.451l10.884-10.884c12.646-12.646 32.744-13.295 46.153-1.917.721.588 1.422 1.237 2.102 1.917l6.916 6.916c.68.68 1.319 1.371 1.917 2.092 11.369 13.41 10.719 33.518-1.916 46.164z" fill="#62dbfb"/><circle cx="113.025" cy="414.952" fill="#99e6fc" r="19.84"/><circle cx="257.341" cy="137.621" fill="#fac600" r="130.121"/><path d="m343.602 137.618c0 47.647-38.619 86.266-86.266 86.266-5.143 0-10.183-.453-15.068-1.319-40.453-7.122-71.197-42.442-71.197-84.946 0-42.494 30.744-77.825 71.197-84.946 4.885-.866 9.925-1.319 15.068-1.319 47.647-.001 86.266 38.628 86.266 86.264z" fill="#fedf30"/><path d="m343.602 137.618c0 47.647-38.619 86.266-86.266 86.266-5.143 0-10.183-.453-15.068-1.319 40.453-7.132 71.177-42.442 71.177-84.946 0-42.494-30.724-77.814-71.177-84.946 4.885-.866 9.925-1.319 15.068-1.319 47.647-.001 86.266 38.628 86.266 86.264z" fill="#fed402"/></g><g><path d="m249.842 180.686v6.911c0 4.142 3.357 7.5 7.5 7.5s7.5-3.358 7.5-7.5v-6.419c11.994-2.126 21.735-10.755 23.693-21.722 2.838-15.896-10.751-25.043-23.693-29.984v-20.729c5.403 1.663 9.144 4.639 9.302 4.767 3.17 2.638 7.88 2.221 10.537-.94 2.665-3.171 2.256-7.902-.915-10.567-.457-.383-8.024-6.622-18.924-8.702v-5.656c0-4.142-3.357-7.5-7.5-7.5s-7.5 3.358-7.5 7.5v5.93c-9.829 2.333-18.193 9.855-19.669 20.136-2.067 14.395 8.247 21.235 19.669 25.942v25.521c-4.283-1.434-8.12-3.834-10.988-6.999-2.782-3.071-7.526-3.301-10.594-.521-3.069 2.781-3.303 7.524-.521 10.594 5.639 6.222 13.522 10.584 22.103 12.438zm23.926-23.867c-.643 3.598-3.961 7.283-8.927 8.949v-20.214c6.47 2.844 9.71 6.882 8.927 11.265zm-26.096-34.384c-2.042-1.539-3.028-3.967-2.651-6.593.2-1.39 1.079-4.472 4.821-6.43v13.964c-.947-.407-1.693-.732-2.17-.941z"/><path d="m132.067 346.428c11.117 0 21.568-4.33 29.429-12.19 9.614-9.613 18.476-20.32 19.051-34.661.462-11.514-3.985-22.96-12.136-31.112l-34.845-34.844c-16.025-16.027-42.832-16.027-58.859 0l-6.912 6.914c-16.026 16.025-16.029 42.83-.001 58.859l34.844 34.844c7.861 7.861 18.312 12.19 29.429 12.19zm-9.107-102.2 34.844 34.844c9.73 9.731 10.338 25.182 1.825 35.627l-72.373-72.232c10.42-8.579 26.178-7.766 35.704 1.761zm-52.357 25.736c0-6.234 2.13-12.142 6.045-16.892l72.387 72.246c-10.418 8.651-26.233 7.871-35.79-1.687l-34.845-34.843c-5.027-5.028-7.797-11.713-7.797-18.824z"/><path d="m257.342 231.386c51.702 0 93.766-42.063 93.766-93.766s-42.063-93.766-93.766-93.766-93.766 42.063-93.766 93.766 42.064 93.766 93.766 93.766zm0-172.531c43.432 0 78.766 35.334 78.766 78.766s-35.334 78.766-78.766 78.766-78.766-35.334-78.766-78.766 35.334-78.766 78.766-78.766z"/><path d="m264.842 470.092 87.479-87.31c16.225 14.426 41.711 13.625 57.041-1.704l34.843-34.844c16.026-16.025 16.029-42.831.001-58.858l-6.913-6.915c-16.229-16.228-42.632-16.228-58.86 0l-34.844 34.844c-15.577 15.577-16.191 40.527-1.861 56.857l-76.886 76.737v-173.865c72.409-3.908 130.12-64.046 130.12-137.414 0-75.884-61.736-137.62-137.62-137.62-41.787 0-80.828 18.664-107.113 51.207-2.604 3.222-2.101 7.944 1.121 10.547 3.224 2.604 7.945 2.1 10.547-1.122 23.423-29 58.212-45.632 95.445-45.632 67.613 0 122.62 55.007 122.62 122.621s-55.007 122.621-122.62 122.621-122.621-55.007-122.621-122.621c0-16.209 3.11-31.956 9.246-46.802 1.582-3.828-.239-8.214-4.067-9.796-3.828-1.581-8.213.24-9.796 4.067-6.89 16.672-10.383 34.346-10.383 52.531 0 73.368 57.711 133.506 130.121 137.414v129.702l-58.564-58.45c-2.932-2.926-7.681-2.921-10.606.01-2.926 2.932-2.921 7.681.011 10.607l69.16 69.025v71.071h-77.415v-31.375c0-1.989-.79-3.897-2.196-5.303l-32.892-32.892c1.929-3.744 3.026-7.984 3.026-12.479 0-15.076-12.265-27.34-27.341-27.34-15.075 0-27.34 12.265-27.34 27.34s12.265 27.34 27.34 27.34c5.138 0 9.949-1.427 14.06-3.902l30.343 30.342v28.269h-47.965c-4.143 0-7.5 3.358-7.5 7.5s3.357 7.5 7.5 7.5h298.295c4.143 0 7.5-3.358 7.5-7.5s-3.357-7.5-7.5-7.5h-42.164v-30.401c0-4.142-3.357-7.5-7.5-7.5s-7.5 3.358-7.5 7.5v30.401h-85.751v-26.908zm168.757-134.464-34.844 34.844c-9.555 9.556-25.37 10.339-35.79 1.687l72.387-72.247c8.587 10.421 7.778 26.185-1.753 35.716zm-79.403-9.716 34.843-34.844c9.519-9.519 25.286-10.316 35.704-1.76l-72.371 72.23c-8.514-10.445-7.906-25.896 1.824-35.626zm-253.511 89.04c0-6.805 5.535-12.34 12.34-12.34s12.341 5.536 12.341 12.34-5.536 12.34-12.341 12.34-12.34-5.536-12.34-12.34z"/></g></g></svg>