<svg width="21" height="21" viewBox="0 0 21 21" fill="none" xmlns="http://www.w3.org/2000/svg">
<path fill-rule="evenodd" clip-rule="evenodd" d="M10.5 0C4.70101 0 0 4.70101 0 10.5C0 16.299 4.70101 21 10.5 21C16.299 21 21 16.299 21 10.5C21 4.70101 16.299 0 10.5 0ZM5.04036 8.69683H7.41989V15.8463H5.04036V8.69683ZM7.57681 6.48493C7.56136 5.78393 7.06007 5.25 6.24605 5.25C5.43203 5.25 4.89985 5.78393 4.89985 6.48493C4.89985 7.17141 5.4163 7.72071 6.21516 7.72071H6.23037C7.06007 7.72071 7.57681 7.17141 7.57681 6.48493ZM13.2617 8.52897C14.8276 8.52897 16.0015 9.55103 16.0015 11.7471L16.0014 15.8464H13.6219V12.0214C13.6219 11.0606 13.2776 10.405 12.4162 10.405C11.7588 10.405 11.3672 10.847 11.1953 11.2739C11.1323 11.4268 11.1169 11.64 11.1169 11.8537V15.8465H8.73709C8.73709 15.8465 8.76845 9.36792 8.73709 8.69705H11.1169V9.70971C11.4327 9.22291 11.9984 8.52897 13.2617 8.52897Z" fill="#39393E"/>
</svg>
