<?xml version="1.0" encoding="utf-8"?>
<!-- Generator: Adobe Illustrator 18.0.0, SVG Export Plug-In . SVG Version: 6.00 Build 0)  -->
<!DOCTYPE svg PUBLIC "-//W3C//DTD SVG 1.1//EN" "http://www.w3.org/Graphics/SVG/1.1/DTD/svg11.dtd">
<svg xmlns="http://www.w3.org/2000/svg" xmlns:xlink="http://www.w3.org/1999/xlink" version="1.1" id="Layer_2" x="0px" y="0px" viewBox="0 0 64 64" style="enable-background:new 0 0 64 64;" xml:space="preserve" width="512" height="512">
<style type="text/css">
	.st0{fill:#EDEFF1;}
	.st1{fill:#D3D3D3;}
	.st2{fill:#98CA69;}
	.st3{fill:#80D6FB;}
	.st4{fill:#FFB0AA;}
	.st5{fill:#FFE352;}
	.st6{fill:#6E83B7;}
	.st7{fill:#466089;}
	.st8{fill:#FFD3B3;}
	.st9{fill:#FCB98B;}
	.st10{fill:#FFB236;}
	.st11{fill:#46BEE8;}
	.st12{fill:#E0E2FF;}
	.st13{fill:#8FA5D1;}
	.st14{fill:#75AA40;}
</style>
<g>
	<g>
		<polygon class="st6" points="18.293,16.707 10.586,9 7,9 7,7 11.414,7 19.707,15.293   "/>
	</g>
	<g>
		<circle class="st6" cx="5" cy="8" r="3"/>
	</g>
	<g>
		<circle class="st0" cx="5" cy="8" r="2"/>
	</g>
	<g>
		<polygon class="st6" points="43.707,13.707 42.293,12.293 50.586,4 55,4 55,6 51.414,6   "/>
	</g>
	<g>
		<circle class="st6" cx="57" cy="5" r="3"/>
	</g>
	<g>
		<circle class="st0" cx="57" cy="5" r="2"/>
	</g>
	<g>
		<polygon class="st6" points="57,53 52.586,53 47.293,47.707 48.707,46.293 53.414,51 57,51   "/>
	</g>
	<g>
		<circle class="st6" cx="59" cy="52" r="3"/>
	</g>
	<g>
		<circle class="st0" cx="59" cy="52" r="2"/>
	</g>
	<g>
		<polygon class="st6" points="18.414,60 10,60 10,58 17.586,58 22.293,53.293 23.707,54.707   "/>
	</g>
	<g>
		<circle class="st6" cx="8" cy="59" r="3"/>
	</g>
	<g>
		<circle class="st0" cx="8" cy="59" r="2"/>
	</g>
	<g>
		<g>
			<path class="st6" d="M35.184,25.429c0,0,3.87-3.942,2.122-5.306c-1.21-0.945-2.44,0.566-3.184-0.531C33.003,17.942,32,18,32,18     s-1.003-0.058-2.122,1.592c-0.744,1.096-1.973-0.415-3.184,0.531c-1.747,1.364,2.122,5.306,2.122,5.306H35.184z"/>
		</g>
		<path class="st7" d="M35.823,24.051c-0.62-0.28-1.343-0.46-2.012-0.574c0.36-0.386,0.662-0.925,0.804-1.669l-0.982-0.188    c-0.25,1.313-1.079,1.618-1.444,1.69c-0.064-0.002-0.133-0.004-0.187-0.004c-0.05,0-0.115,0.003-0.173,0.004    c-0.381-0.073-1.208-0.379-1.458-1.69l-0.982,0.188c0.142,0.744,0.444,1.284,0.805,1.669c-0.67,0.114-1.393,0.294-2.013,0.574    c-0.132,0.06-0.253,0.138-0.361,0.227c0.535,0.676,1,1.15,1,1.15h6.367c0,0,0.465-0.474,1-1.15    C36.075,24.189,35.955,24.111,35.823,24.051z"/>
		<g>
			<path class="st5" d="M32,26.49h4.245v-0.978c0-0.424-0.254-0.802-0.641-0.977c-1.234-0.557-2.935-0.698-3.604-0.698     c-0.669,0-2.37,0.141-3.604,0.698c-0.387,0.175-0.641,0.552-0.641,0.977l0,0.978H32z"/>
		</g>
		<g>
			<path class="st6" d="M32,25h1c4.418,0,8,3.582,8,8v5.122c0,0.562,0.223,1.101,0.621,1.499l0.758,0.758     C42.777,40.777,43,41.316,43,41.878v0.002c0,1.171-0.949,2.12-2.12,2.12h-9.268H23.12C21.949,44,21,43.051,21,41.88v-0.002     c0-0.562,0.223-1.101,0.621-1.499l0.758-0.758C22.777,39.223,23,38.684,23,38.122V33c0-4.418,3.582-8,8-8H32z"/>
		</g>
		<g>
			<circle class="st5" cx="32" cy="33.918" r="4"/>
		</g>
		<path class="st6" d="M32.531,33.418h-1.062c-0.31,0-0.561-0.252-0.561-0.562s0.251-0.561,0.561-0.561h1.062    c0.31,0,0.561,0.251,0.561,0.561h1c0-0.861-0.7-1.561-1.561-1.561H32.5v-0.562h-1v0.562h-0.031c-0.861,0-1.561,0.7-1.561,1.561    s0.7,1.562,1.561,1.562h1.062c0.31,0,0.561,0.251,0.561,0.561s-0.251,0.561-0.561,0.561h-1.062c-0.31,0-0.561-0.251-0.561-0.561    h-1c0,0.861,0.7,1.561,1.561,1.561H31.5v0.562h1v-0.562h0.031c0.861,0,1.561-0.7,1.561-1.561S33.392,33.418,32.531,33.418z"/>
	</g>
	<path class="st3" d="M32,7C18.215,7,7,18.215,7,32s11.215,25,25,25s25-11.215,25-25S45.785,7,32,7z M32,50c-9.941,0-18-8.059-18-18   c0-9.941,8.059-18,18-18s18,8.059,18,18C50,41.941,41.941,50,32,50z"/>
	<g>
		<path class="st4" d="M14,32c0-9.941,8.059-18,18-18V7C18.215,7,7,18.215,7,32c0,6.893,2.804,13.143,7.331,17.669l4.941-4.941    C16.015,41.471,14,36.971,14,32z"/>
	</g>
	<g>
		<path class="st2" d="M44.728,19.272l4.941-4.941C45.142,9.804,38.893,7,32,7v7C36.971,14,41.471,16.015,44.728,19.272z"/>
	</g>
	<g>
		<path class="st0" d="M45.313,53.145l-3.731-5.926C38.805,48.971,35.526,50,32,50c-4.971,0-9.471-2.015-12.728-5.272l-4.941,4.941    C18.857,54.196,25.107,57,32,57C36.891,57,41.455,55.583,45.313,53.145z"/>
	</g>
</g>
</svg>
