<svg width="13" height="14" viewBox="0 0 13 14" fill="none" xmlns="http://www.w3.org/2000/svg">
<path d="M0.722068 4.25545H7.99858V2.7002H0.722068C0.323299 2.7002 0 3.04836 0 3.47781C0 3.90725 0.323299 4.25545 0.722068 4.25545Z" fill="white"/>
<path d="M0.722068 7.37654H7.99858V5.82129H0.722068C0.323299 5.82129 0 6.16946 0 6.59893C0 7.02841 0.323299 7.37654 0.722068 7.37654Z" fill="white"/>
<path d="M0.722068 8.94116V8.94119C0.323299 8.94119 0 9.28933 0 9.7188C0 10.1483 0.323299 10.4964 0.722068 10.4964H5.77725C5.72015 10.307 5.69 10.1073 5.69 9.90235C5.69 9.5592 5.77355 9.23005 5.92961 8.94116H0.722068Z" fill="white"/>
<path d="M12.7327 9.20774C12.3761 8.82369 11.7979 8.82369 11.4413 9.20774L10.6916 10.0152V1.61008C10.6916 1.06696 10.2827 0.626709 9.77841 0.626709C9.27408 0.626709 8.86525 1.06699 8.86525 1.61008V10.0152L8.11549 9.20774C7.75888 8.82372 7.18071 8.82369 6.8241 9.20774C6.46749 9.59178 6.46749 10.2144 6.8241 10.5985L9.13258 13.0845C9.48848 13.4679 10.0674 13.4692 10.4243 13.0845L12.7327 10.5985C13.0893 10.2144 13.0893 9.59178 12.7327 9.20774Z" fill="white"/>
</svg>
