<svg width="21" height="21" viewBox="0 0 21 21" fill="none" xmlns="http://www.w3.org/2000/svg">
<path fill-rule="evenodd" clip-rule="evenodd" d="M10.5 0C4.70101 0 0 4.70101 0 10.5C0 16.299 4.70101 21 10.5 21C16.299 21 21 16.299 21 10.5C21 4.70101 16.299 0 10.5 0ZM10.2076 8.89764L10.1855 8.53431C10.1194 7.59264 10.6996 6.73252 11.6177 6.39886C11.9556 6.28022 12.5284 6.26539 12.903 6.3692C13.0499 6.41369 13.329 6.56198 13.5273 6.69545L13.8872 6.94014L14.2838 6.81409C14.5041 6.74735 14.7979 6.63613 14.9301 6.56198C15.055 6.49525 15.1651 6.45818 15.1651 6.48042C15.1651 6.60647 14.8934 7.03653 14.6657 7.2738C14.3572 7.60747 14.4454 7.63712 15.0696 7.41468C15.4442 7.28863 15.4516 7.28863 15.3781 7.42951C15.334 7.50366 15.1064 7.76318 14.864 8.00045C14.4527 8.40826 14.4307 8.45275 14.4307 8.79383C14.4307 9.32028 14.181 10.4177 13.9312 11.0183C13.4685 12.1453 12.477 13.3094 11.4855 13.8952C10.09 14.7182 8.23188 14.9258 6.66749 14.4439C6.14603 14.2808 5.25 13.8655 5.25 13.7914C5.25 13.7691 5.52175 13.7395 5.85225 13.7321C6.54264 13.7172 7.23302 13.5245 7.82059 13.1834L8.21719 12.9461L7.76183 12.7904C7.11551 12.5679 6.53529 12.0563 6.3884 11.5744C6.34434 11.4187 6.35902 11.4112 6.77032 11.4112L7.1963 11.4038L6.83642 11.2333C6.41044 11.0183 6.02118 10.6549 5.83022 10.2842C5.69067 10.0173 5.5144 9.34252 5.56581 9.29062C5.5805 9.26837 5.73474 9.31286 5.91101 9.37218C6.41778 9.55755 6.48388 9.51306 6.1901 9.20164C5.63926 8.63812 5.47034 7.80025 5.73474 7.00687L5.8596 6.65096L6.34434 7.13292C7.33585 8.10425 8.50363 8.68261 9.84033 8.85315L10.2076 8.89764Z" fill="#39393E"/>
</svg>
